<svg width="24" height="24" viewBox="0 0 24 24" fill="none" xmlns="http://www.w3.org/2000/svg">
<path d="M22 12C22 17.524 17.524 22 12 22C10.23 22 8.577 21.53 7.139 20.726L3.849 21.706C3.63301 21.7702 3.40367 21.7749 3.18526 21.7195C2.96684 21.664 2.76746 21.5506 2.60823 21.3912C2.44899 21.2317 2.33582 21.0322 2.28068 20.8137C2.22554 20.5952 2.23049 20.3659 2.295 20.15L3.273 16.861C2.43767 15.3771 1.99921 13.7028 2 12C2 6.476 6.476 2 12 2C17.524 2 22 6.476 22 12Z" fill="rgb(61, 111, 224)"/>
</svg>
